
<global>
amp_veltrack=0
ampeg_attack=0.002
ampeg_release=0.35
</global>

<group>
group_label=PP
lpc_hicc1=42
lpc_locc1=0

<region>
end=347401
hikey=g#4
hivel=127
lokey=g4
loop_end=290591
loop_mode=loop_continuous
loop_start=89390
loop_xfade=40945
lovel=1
lpc=z/ZQQT0fAcIs4QFCcaqUwQAyBEHEQGzABR9JP03vTT+VGd6+cp/lvnoWiz5XtqA9gY/NvrM27z7S9oA/fciRv+sSkr/PQYNAkJt8wN+KOz9PsHc/ITiiPsVN/7+YLqU/
lpc_rms=-50.82
offset=9834
pitch_keycenter=g#4
sample=Solocello_trill_min3rd_PP_G#4.opus
</region>

<region>
end=369035
hikey=g#3
hivel=127
lokey=g3
loop_end=292622
loop_mode=loop_continuous
loop_start=94956
loop_xfade=43495
lovel=1
lpc=vyT3QeqGlcLCIIFCTebkwTzCkkGLK3rBE/vmQHc0nMAjcYBAIFnzv9N1xD8GNrC/z4k8wHK7KUFTkhnBliUaQAIfyL9K8ZRA4XhDwBepZj9AdOY+t4gTwHu+PT+Pex8/
lpc_rms=-48.00
offset=6160
pitch_keycenter=g#3
sample=Solocello_trill_min3rd_PP_G#3.opus
</region>

<region>
end=362513
hikey=g#2
hivel=127
lokey=g2
loop_end=286221
loop_mode=loop_continuous
loop_start=83612
loop_xfade=42727
lovel=1
lpc=bx0bQipOscI2r3FCavhJwV0wjUG6ELnBFx4FQU2eur+4Hh6+LwN0v2QOoT8uXJtAwzkqwaKiMUGcVd+/euRHwMkclcDzs/JAu2NMwHcT4j/BlJS/5P+WP+RVXsBdHQ5A
lpc_rms=-42.90
pitch_keycenter=g#2
sample=Solocello_trill_min3rd_PP_G#2.opus
</region>

<region>
end=357971
hikey=G#6
hivel=127
lokey=f5
loop_end=288172
loop_mode=loop_continuous
loop_start=92110
loop_xfade=42191
lovel=1
lpc=zEApQTcOxMGxX85B1wmWwfYmQ0HuIO7AS9RrQINqkb8dyj0/xxoIP55Mfr9/qJG+UvoZPimEvz5IcaQ+UaMvPS4D6784aWdADYM3wFJMKz+V9O8+iy6VvtLEoT/uFae/
lpc_rms=-53.01
offset=12248
pitch_keycenter=F#5
sample=Solocello_trill_min3rd_PP_F#5.opus
</region>

<region>
end=373547
hikey=f#4
hivel=127
lokey=f4
loop_end=289230
loop_mode=loop_continuous
loop_start=96117
loop_xfade=44027
lovel=1
lpc=6MUcQTYqwsESjsFBAKRWwe7K8kB6JszAwllZQDHU5T4MUcq/+GwLvk7fgD/3nTa/a86JP8yPSL6FyPG/CaINQICH3b7ECQu/nFspPGw5Rj8wbmi/BprRPKAnKz+0G5q+
lpc_rms=-53.90
offset=11165
pitch_keycenter=f#4
sample=Solocello_trill_min3rd_PP_F#4.opus
</region>

<region>
end=337220
hikey=f#3
hivel=127
lokey=f3
loop_end=282075
loop_mode=loop_continuous
loop_start=86770
loop_xfade=39745
lovel=1
lpc=1dHtQejvl8Kv3Y1CNosGwj2hm0G6vorBYR46QRCVEsFfS71Atz4WwLmIzz8BKYM/ShsRwa9Cf0FnwSbBvoV0vsFozz+ieS9AFNMNwIQwE78F11m9NePwP4aVNcCSOco/
lpc_rms=-46.04
pitch_keycenter=f#3
sample=Solocello_trill_min3rd_PP_F#3.opus
</region>

<region>
end=343341
hikey=f#2
hivel=127
lokey=f2
loop_end=267600
loop_mode=loop_continuous
loop_start=88345
loop_xfade=40467
lovel=1
lpc=SGpIQiA54sLobZVCjnR4wVidyEGrAeLBU5r1QF4j58AuZMdAd+0TPzkozj9qPVM+WbxWwW0evEHbRyLB5mJjwDNXZ8A9nAlBtcI8wMNbDT8yi/K/tiZzQKHU98DchJ5A
lpc_rms=-40.98
pitch_keycenter=f#2
sample=Solocello_trill_min3rd_PP_F#2.opus
</region>

<region>
end=373655
hikey=e5
hivel=127
lokey=d#5
loop_end=295169
loop_mode=loop_continuous
loop_start=96145
loop_xfade=44040
lovel=1
lpc=W7BDQfGu4MFiAtlBRFmFwWbXJUFFl9vAn+o7QM6PuL/7fa4/SsaEPf5kw74UUF6/71zdP9kuAr/pqQS90aqgv/XDpD6CdghAqcx5vuxqAsAsxn8+y+GbPzboUD+926K/
lpc_rms=-53.11
offset=13726
pitch_keycenter=e5
sample=Solocello_trill_min3rd_PP_E5.opus
</region>

<region>
end=332836
hikey=e4
hivel=127
lokey=d#4
loop_end=278408
loop_mode=loop_continuous
loop_start=85642
loop_xfade=39229
lovel=1
lpc=lrq1QWm/csLrRINCxdcgwrqVsEGwtn3BJo0aQWEuL8CMcR3AG6mAQOTMxL8CwYy/iMhSwBuqEEHuIaTAIhQpv1Ru5L/Pk9dAFNCuwFTh8D6DvY49gfOHQOFgwsCGMTxA
lpc_rms=-47.68
pitch_keycenter=e4
sample=Solocello_trill_min3rd_PP_E4.opus
</region>

<region>
end=333138
hikey=e3
hivel=127
lokey=d#3
loop_end=278661
loop_mode=loop_continuous
loop_start=85720
loop_xfade=39264
lovel=1
lpc=dt4VQiG7usJ8DapCIMcmwqRi1UHyJcbBRZKUQYJEUsE2YLVAkmo6v5CP4T79ZMc/KBIMwbbrjUH7AHfB69WoQHQq0L9YZPY+94vCQOzh98DIYG4/E1LAQLhQBcGM2HxA
lpc_rms=-43.70
pitch_keycenter=e3
sample=Solocello_trill_min3rd_PP_E3.opus
</region>

<region>
end=314014
hikey=e2
hivel=127
lokey=d#2
loop_end=262664
loop_mode=loop_continuous
loop_start=80799
loop_xfade=37010
lovel=1
lpc=u7AYQjrmq8IEGWJCW0dawSb6xUH+ktrBqcYJQX3J0MBec75ArRiyv0i3CkAge6s/ukElwXEee0FhbNDAa1kOwHRkgsDWzgpBgLU4wKfMm75IMfK/yJgcQHxnPcDixOw/
lpc_rms=-40.44
pitch_keycenter=e2
sample=Solocello_trill_min3rd_PP_E2.opus
</region>

<region>
end=372173
hikey=d5
hivel=127
lokey=c#5
loop_end=283565
loop_mode=loop_continuous
loop_start=95764
loop_xfade=43865
lovel=1
lpc=1jYhQaOCucH8XrRBxJZZwe7S9UBTUJ/ACWpeQGxCVcAa+jRA4Vwlv+1pQD/vzxXAbHGXP6OCvj5jqak/COopwFwvBj+fG9s/6OrXv88yF0Ag2RfAWtq0P44BJr/GYYo+
lpc_rms=-52.33
offset=7566
pitch_keycenter=d5
sample=Solocello_trill_min3rd_PP_D5.opus
</region>

<region>
end=350932
hikey=d4
hivel=127
lokey=c#4
loop_end=275416
loop_mode=loop_continuous
loop_start=90298
loop_xfade=41362
lovel=1
lpc=KYtSQXaXCsKqbhdCAJPCwblUWUE4VgHBuYxsQGx1F7/V8fe/QoYrQCMXr7/Ir/Y+JTkawEgdpEAcxk/A9xcPPzXF3b92ClpA1IMswEPfyj++oY2/FxTWP2GfJsBjlLI/
lpc_rms=-51.19
pitch_keycenter=d4
sample=Solocello_trill_min3rd_PP_D4.opus
</region>

<region>
end=339066
hikey=d3
hivel=127
lokey=c#3
loop_end=273372
loop_mode=loop_continuous
loop_start=87245
loop_xfade=39963
lovel=1
lpc=ONkFQsjiosKMGYBCiKGcwdDHb0HHCoHBjRTKQCoGdMCHTqm+oHhXQHSQyz9yvbO+j7USwecxZ0GhnQvBPu75PwXDocAGM/1AAVyUv1CnYMCFMgY/Rk//P/0EIsAQSbM/
lpc_rms=-42.95
pitch_keycenter=d3
sample=Solocello_trill_min3rd_PP_D3.opus
</region>

<region>
end=354828
hikey=d2
hivel=127
lokey=c#2
loop_end=275839
loop_mode=loop_continuous
loop_start=91301
loop_xfade=41821
lovel=1
lpc=DEMYQpZjrsLea2lCmHEowS98lUErqMbBW3boQBq+KcBfTD1AAHRXPPcTx7/25cVAy0JdwUt6kkG5mhDBBIMyPzeb0MD1wgdBIKQLwNrcmj9gvT7AYuU7QE9qmsAmIU1A
lpc_rms=-44.08
pitch_keycenter=d2
sample=Solocello_trill_min3rd_PP_D2.opus
</region>

<region>
end=349029
hikey=c5
hivel=127
lokey=b4
loop_end=291953
loop_mode=loop_continuous
loop_start=89809
loop_xfade=41137
lovel=1
lpc=SAUdQfghvcFOrsJBIed8wbP8H0E9Au3AKkGaQIY8PMBIsQlAxiLMv+UcBkBirnq/8hofwMfjgUBw/kvAg8c8QLFVf8BLfZ1AIcRYwGp9pz/E4iO/suetP5RtD8AHJ7I/
lpc_rms=-52.01
offset=6673
pitch_keycenter=c5
sample=Solocello_trill_min3rd_PP_C5.opus
</region>

<region>
end=349507
hikey=c4
hivel=127
lokey=b3
loop_end=279117
loop_mode=loop_continuous
loop_start=89932
loop_xfade=41194
lovel=1
lpc=CkbUQVHLhsLcnn5C9wL+wb7GlEFd+oHBWXQtQfFBEMGiPARBEQ2UwGHXJUCze7q/yZlbwNn/GEGpgAvBYNOBQDNBLMAgywBAfFitv6x9aUCp9JTAl6g9QJTYK8AEu9g/
lpc_rms=-45.45
pitch_keycenter=c4
sample=Solocello_trill_min3rd_PP_C4.opus
</region>

<region>
end=307556
hikey=c3
hivel=127
lokey=b2
loop_end=257262
loop_mode=loop_continuous
loop_start=79137
loop_xfade=36249
lovel=1
lpc=2GkjQmU+x8KAJJ1CeNe4wXeOgEEes5DBDgCdQKndCL9vHIk/HhYlvWlNgMAbfz1BcBGEwY6ZoEH/NJLBSinTQID5RT60xjRAR0Z+wINISkAH9yzAWaIAQG5SWMDyzxdA
lpc_rms=-41.50
pitch_keycenter=c3
sample=Solocello_trill_min3rd_PP_C3.opus
</region>

<region>
end=307854
hivel=127
key=c2
loop_end=257511
loop_mode=loop_continuous
loop_start=79214
loop_xfade=36284
lovel=1
lpc=STUUQsXpqcI/qGdCaPxpwZQJwEEwNc/BbJDYQG29ksDahqVATibov+3b0z+e6Q1AZpUlweJrcEGXE7XAIVUlwKnficBuHe9AONLnvn6myL8G+62/3S8QQGltV8Bs4RFA
lpc_rms=-42.29
sample=Solocello_trill_min3rd_PP_C2.opus
</region>

<region>
end=372943
hikey=a#4
hivel=127
lokey=a4
loop_end=283434
loop_mode=loop_continuous
loop_start=95962
loop_xfade=43956
lovel=1
lpc=wZYNQfWFq8HZQq5BkTBUwRWq9ECw5KTAWwhAQAYc4b8ng5o/X5+uvr5qJb+RYcM/Wyjtv/bQBUCD2dy/JKd6P5GQ9L9yPGpA3ThawM+09j8i7DO/LLONP0Zk47+qIXg/
lpc_rms=-53.93
offset=8670
pitch_keycenter=a#4
sample=Solocello_trill_min3rd_PP_A#4.opus
</region>

<region>
end=364110
hikey=a#3
hivel=127
lokey=a3
loop_end=287393
loop_mode=loop_continuous
loop_start=93689
loop_xfade=42915
lovel=1
lpc=VqDEQbRZaMKUszNCL5Q3wS/apEAGtvbAI2fcP5c2pD8Gsgo+9qjjvQbW0r//6fM/3Xc3v8e0I0CgV7XA8VGCQDqcu73A56W/7pLUPwsm1r/azbI/O/oqv2GdLb+UWy8/
lpc_rms=-48.26
offset=11605
pitch_keycenter=a#3
sample=Solocello_trill_min3rd_PP_A#3.opus
</region>

<region>
end=349261
hikey=a#2
hivel=127
lokey=a2
loop_end=283010
loop_mode=loop_continuous
loop_start=87397
loop_xfade=41165
lovel=1
lpc=MI8NQgUNqsLZDYBCmFiAwTJ3bUEg76DBhAfjQBzD47/MD+8/nEoTv6N13T+uktg/XPZIwVtKl0FPezHBj7QtQP9/kMCCw75ANogZvy27BsCmvpW/XeRTQI9dbMDWNf4/
lpc_rms=-42.45
offset=9689
pitch_keycenter=a#2
sample=Solocello_trill_min3rd_PP_A#2.opus
</region>
</group>

<group>
group_label=MF
lpc_hicc1=84
lpc_locc1=43

<region>
end=338053
hikey=g#4
hivel=127
lokey=g4
loop_end=272486
loop_mode=loop_continuous
loop_start=73301
loop_xfade=39844
lovel=1
lpc=U68cQdEktsFYMrJBQ+xmwcRgJUG5xQfBcmXYQGLwq8BbB4xAH/GFwGavg0DO61bAzJtkP+hv1j9LP7a/ZerOvjL2WL5JxyZAcCEdwIsunj8jCye/ERM3P5T/Nb9xttg+
lpc_rms=-35.07
pitch_keycenter=g#4
sample=Solocello_trill_min3rd_MF_G#4.opus
</region>

<region>
end=310243
hikey=g#3
hivel=127
lokey=g3
loop_end=259510
loop_mode=loop_continuous
loop_start=79829
loop_xfade=36566
lovel=1
lpc=wpyTQYJMMcLzLBpCCN6Pwc1oR0HdyjPBMqPGQLwepcBghgNB0j0LwZoej0B2u3G+LAl+wGEv8EAEsLjA+cLjP2aS4j5oNIM9Bl7qv0xRKUA3m+q/XirKP/haCcBbsYc/
lpc_rms=-34.24
pitch_keycenter=g#3
sample=Solocello_trill_min3rd_MF_G#3.opus
</region>

<region>
end=363002
hikey=g#2
hivel=127
lokey=g2
loop_end=280426
loop_mode=loop_continuous
loop_start=87651
loop_xfade=42784
lovel=1
lpc=aP7MQb0pecJ0G1NC94C6wc9AjUEBclvBNmCuQMcQv8AWSLJAqMSBwCBZjUBmKJ6+VxPvwOxhQUFhbRTBBFfxPwCJBUBXbkg++evoviYjDMAe6wBAMsNhv+sM1T3FApA+
lpc_rms=-34.39
pitch_keycenter=g#2
sample=Solocello_trill_min3rd_MF_G#2.opus
</region>

<region>
end=297870
hikey=G#6
hivel=127
lokey=f5
loop_end=249160
loop_mode=loop_continuous
loop_start=76645
loop_xfade=35107
lovel=1
lpc=Vwj5QFKXhcGDaIZBY95HwfRBJUFPtAfBI17hQEBLs8A7UIhAxWJFwEqXP0BFOD3A/HFAQPwSFcC29Pg/gLUov2B0n78Hf1hAhjVswIsLCECdDqA9u6FHvvQ0Yj2XgQ69
lpc_rms=-40.40
pitch_keycenter=F#5
sample=Solocello_trill_min3rd_MF_F#5.opus
</region>

<region>
end=345483
hikey=f#4
hivel=127
lokey=f4
loop_end=275038
loop_mode=loop_continuous
loop_start=77026
loop_xfade=40719
lovel=1
lpc=1RQFQeV0mMHybo9B+s8ywXkeBEF9ltDA/rVvQP0L1r/BB9o/LX4iwIfIQ0C6FAnA93zgvQaRkD+ciSW8ZxBavzOdRT7x5oc/ExSyv9HoWT8QYBO/tWNkPrDHXD6I2++8
lpc_rms=-36.75
pitch_keycenter=f#4
sample=Solocello_trill_min3rd_MF_F#4.opus
</region>

<region>
end=324212
hikey=f#3
hivel=127
lokey=f3
loop_end=271194
loop_mode=loop_continuous
loop_start=83423
loop_xfade=38212
lovel=1
lpc=YymqQY2tTsJ+izFCr8uawTzJVUGOBjzBBDuXQNbeXsBYvOxAorsJwdSBmUBnTAY/GPehwC1w5kB8XZ7AT7jHP8k33L7iqaE/7PfUv+CXXj9lVp8+2qyKvyqL8j4OgtA9
lpc_rms=-32.68
pitch_keycenter=f#3
sample=Solocello_trill_min3rd_MF_F#3.opus
</region>

<region>
end=306305
hikey=f#2
hivel=127
lokey=f2
loop_end=256216
loop_mode=loop_continuous
loop_start=78815
loop_xfade=36102
lovel=1
lpc=20g7Qh1c7MLfj8xCzyYrwuWJAUKYvOLB9yHkQFr5F8CEVAJBhmk2wTbx7kDjnJk/poXcwB5ZRUFKizDBvok1QFRTyr4/DD1AM6voP2B4I8HWC9JAIk9kQKVBw8D7VBpA
lpc_rms=-30.36
pitch_keycenter=f#2
sample=Solocello_trill_min3rd_MF_F#2.opus
</region>

<region>
end=335366
hikey=e5
hivel=127
lokey=d#5
loop_end=280525
loop_mode=loop_continuous
loop_start=86293
loop_xfade=39527
lovel=1
lpc=vK8VQShkkcEl+IFBt7FFwRjMLkHzTAnBjXq4QPlUdsBcu3tAm4iNwJD7mUCk2KfAVuedQO9F67/JnW+/ySKnPlznGT+RCJk/iIulvwBxwTzwxrg/BCUFwObBFEDNiHi/
lpc_rms=-38.42
pitch_keycenter=e5
sample=Solocello_trill_min3rd_MF_E5.opus
</region>

<region>
end=303790
hikey=e4
hivel=127
lokey=d#4
loop_end=254112
loop_mode=loop_continuous
loop_start=78168
loop_xfade=35805
lovel=1
lpc=/TpoQX80B8I+mvpBR6CRwSm1RUEhxhTBF8acQHLX7b+f0uY/+q9owFDwa0ArltG/V0EfwJy9qECqEULAjQZSP4FtA8D+QzhADljQvwFivj4j78g+K/eNv81xdj+YgLs9
lpc_rms=-31.20
pitch_keycenter=e4
sample=Solocello_trill_min3rd_MF_E4.opus
</region>

<region>
end=307257
hikey=e3
hivel=127
lokey=d#3
loop_end=257012
loop_mode=loop_continuous
loop_start=79060
loop_xfade=36214
lovel=1
lpc=BO8NQt5frcIr7JdCYhkNwsuItUHpE4jBpd7YQNu58cATs2ZB2AGFwVaeGEG7vYM/kqYowUEkikGa92PBP6XCQKsiOsDRn3xA1RVYwNEk5T/4SIC9Z4LBv5RGlj/mluu9
lpc_rms=-31.90
pitch_keycenter=e3
sample=Solocello_trill_min3rd_MF_E3.opus
</region>

<region>
end=333703
hikey=e2
hivel=127
lokey=d#2
loop_end=279133
loop_mode=loop_continuous
loop_start=85865
loop_xfade=39331
lovel=1
lpc=naYaQjT+uMJONIhCcUqXwSGXw0FaGNzBacnmQK7Mi78AShJAlZmzwGORAEFvrlG+oC7AwAd110DN54TAqN4CwLpcVEAJShZAdsmOv9ZYtcARj1VAiNgNQKB/LcCQxH8/
lpc_rms=-31.94
offset=2417
pitch_keycenter=e2
sample=Solocello_trill_min3rd_MF_E2.opus
</region>

<region>
end=339657
hikey=d5
hivel=127
lokey=c#5
loop_end=273878
loop_mode=loop_continuous
loop_start=72370
loop_xfade=40033
lovel=1
lpc=34LdQNI9YsGhY09Ba/0WwTLzBEHn9sXAGVSLQFYnacDJXmhAx7SNwB5mmkCkJF3Aj10EQCyuhb8whxI/jzrNvqyiFj++Z9a+sn4JP4GY3b77+RM/EvdevuHt+L5dV0U/
lpc_rms=-39.47
pitch_keycenter=d5
sample=Solocello_trill_min3rd_MF_D5.opus
</region>

<region>
end=343992
hikey=d4
hivel=127
lokey=c#4
loop_end=274584
loop_mode=loop_continuous
loop_start=74309
loop_xfade=40544
lovel=1
lpc=6g1PQaXu8cGMF9pBX31twY6HMEHTKRXB2YqDQAWRGMBCu5dA2lPCwKuCn0DUHCDAHYiQvTj+kj8nW5y/zG4aQBvbS8CxACNARNgZwGBa+z8mizE+bq98vxWcg7zVd8M+
lpc_rms=-32.78
pitch_keycenter=d4
sample=Solocello_trill_min3rd_MF_D4.opus
</region>

<region>
end=306916
hikey=d3
hivel=127
lokey=c#3
loop_end=256727
loop_mode=loop_continuous
loop_start=78973
loop_xfade=36174
lovel=1
lpc=iFbeQWT/iMLWdnlC2UMDwtIIsUEPEn3BuSPwQBmi4cCN1zBB9ZwvwVyfj0BtGgJAYOXrwAjLJEHjxsbAW/AgP8oVrj/eUSC/xOO2PjOtCL/iY9E/HZrAwMwQzEARQ+u/
lpc_rms=-31.22
pitch_keycenter=d3
sample=Solocello_trill_min3rd_MF_D3.opus
</region>

<region>
end=302789
hikey=d2
hivel=127
lokey=c#2
loop_end=253275
loop_mode=loop_continuous
loop_start=77911
loop_xfade=35687
lovel=1
lpc=NC0OQuyxpcKn6mZC5LtUwQUlokEN9LvBPQG/QEPS/7+XSjk/ujsvv+FDvkBx1IrA73AQv/CRREDKOga/OdKgwKQnkECU34E/FDBrv4GCKcCKOjQ/0ouUQNCDyMCZNS1A
lpc_rms=-32.29
pitch_keycenter=d2
sample=Solocello_trill_min3rd_MF_D2.opus
</region>

<region>
end=297618
hikey=c5
hivel=127
lokey=b4
loop_end=248949
loop_mode=loop_continuous
loop_start=76580
loop_xfade=35078
lovel=1
lpc=HwoHQVSYjMEqN31BU8Etwcm/AkHr0cDAjDydQKL9VMDdLEpACgKNwLgwj0ByUUPAw/zvPq/EoD9fInW/GfEAP5e2k773fWY/gPU8vz+Fqz7q082+qyfpPq/Q7r73Ah4/
lpc_rms=-36.33
pitch_keycenter=c5
sample=Solocello_trill_min3rd_MF_C5.opus
</region>

<region>
end=345446
hikey=c4
hivel=127
lokey=b3
loop_end=278885
loop_mode=loop_continuous
loop_start=74673
loop_xfade=40715
lovel=1
lpc=WayNQXBKKsL/TBlCCMmkweU3dkGUZkTBhEHNQN7ap8DLB/FAWycIwU49yUC/xKS/hPtxwFRMvUC1CYPAqwU0PwYAcDx2bnQ+84MwPd7jgD/NUoa/hUmdv7gGEEC4XjO/
lpc_rms=-32.74
pitch_keycenter=c4
sample=Solocello_trill_min3rd_MF_C4.opus
</region>

<region>
end=308245
hikey=c3
hivel=127
lokey=b2
loop_end=257839
loop_mode=loop_continuous
loop_start=79314
loop_xfade=36331
lovel=1
lpc=TXS7QeeEYsL51j1CiYOiwQzKeEHmTUDBDpRdQDU1UcC3SERAIg8KwKciPUDFMjU/y14IwaUYVkHY5BzBk7ArQNAhGb/xyxtAC9Xpv/L8Mb5S/sw+qVRCPx3cqL8J4ho/
lpc_rms=-32.53
pitch_keycenter=c3
sample=Solocello_trill_min3rd_MF_C3.opus
</region>

<region>
end=300335
hivel=127
key=c2
loop_end=251222
loop_mode=loop_continuous
loop_start=77279
loop_xfade=35398
lovel=1
lpc=D8AUQg9YqcLGnFxCzAEhwYCQp0EUUsDBvsGyQKhdjMB1SuFAhikMwWBeE0FmYznACtXNPZRhNkDr6SLAMBSDwDHeA0DM/KtAFj5UwOrUy78B+pq+/nGdQG3pzMADyD9A
lpc_rms=-32.56
sample=Solocello_trill_min3rd_MF_C2.opus
</region>

<region>
end=341296
hikey=a#4
hivel=127
lokey=a4
loop_end=266609
loop_mode=loop_continuous
loop_start=68267
loop_xfade=40226
lovel=1
lpc=vwTpQEIIfcFvVGxBa3sRwdZ3zkAjtprAE+1FQKMdC8CzohNArkUawOV1AkCPUl+/nS6LvpmDLz9reHG/jT3tPkdq/D4E4Ec+MjswvyykjD67fRw/9PZpv0aYBT+u/1U+
lpc_rms=-39.24
pitch_keycenter=a#4
sample=Solocello_trill_min3rd_MF_A#4.opus
</region>

<region>
end=307334
hikey=a#3
hivel=127
lokey=a3
loop_end=257076
loop_mode=loop_continuous
loop_start=79080
loop_xfade=36223
lovel=1
lpc=VIGgQUQtPcKpgiBCr3aCwWwl/kA9DwfB3LWYQDoQpr91yp1AtK0awRo/8UBWab+/NNARwIKtLECUAuW/NH6pv54+n0CpWUjAHy43v82PAkC3OxfABJj6P8NNnr8+pRI/
lpc_rms=-34.08
pitch_keycenter=a#3
sample=Solocello_trill_min3rd_MF_A#3.opus
</region>

<region>
end=350826
hikey=a#2
hivel=127
lokey=a2
loop_end=276909
loop_mode=loop_continuous
loop_start=74874
loop_xfade=41349
lovel=1
lpc=zV3oQZKsicKCAE9CuJVSwekVJ0G5ClfBHGK7QHpQnsDRTMNAcYz8wCSEJUHJ7I/Atu3OwH9VJkFSvofAL6QwwMhvPkDe9/s/KGEewMo9Y78uNoS+5ihUQOQiZcCANsY/
lpc_rms=-34.42
pitch_keycenter=a#2
sample=Solocello_trill_min3rd_MF_A#2.opus
</region>
</group>

<group>
group_label=FF
lpc_hicc1=127
lpc_locc1=85

<region>
end=300016
hikey=g#4
hivel=127
lokey=g4
loop_end=250955
loop_mode=loop_continuous
loop_start=77197
loop_xfade=35360
lovel=1
lpc=e9rnQE6Wd8E32WpBTrMzwRnwIUEpwAnBEBLDQCN0gcDo/DBA19Wov/iGqz7uVLG+9p8yvzxsFkDckA7AF6mPP6noqL+3UvM/i6aOvw6/lD5zRG25Ncl1vjqtKj+/N2m+
lpc_rms=-29.90
pitch_keycenter=g#4
sample=Solocello_trill_min3rd_FF_G#4.opus
</region>

<region>
end=306465
hikey=g#3
hivel=127
lokey=g3
loop_end=256350
loop_mode=loop_continuous
loop_start=78856
loop_xfade=36121
lovel=1
lpc=dvGDQfVPGcKJiAJC2RaFwWwkVkHMFEnBelbuQPW1jcBM57RA6sLRwOaPwkCN/GXApFVswB/SAUH6FXTAd+Clv0SKAUAXKfq+GdXwP9yMcMCiWBFApymkv1QOsz+WwSq/
lpc_rms=-27.51
pitch_keycenter=g#3
sample=Solocello_trill_min3rd_FF_G#3.opus
</region>

<region>
end=354627
hikey=g#2
hivel=127
lokey=g2
loop_end=296636
loop_mode=loop_continuous
loop_start=91249
loop_xfade=41797
lovel=1
lpc=VvMvQszyz8JqVKBCMnnCwe+4jEF9OK3BPV06QWQA6cCJQf4/R+8qQNNkiz/tYB3AlsLEwEb6bUFpRtnANVyrwGvKtz98UeJAq2MHwMd47MAX9eJAsYcLPvi3csAgJNk/
lpc_rms=-22.94
pitch_keycenter=g#2
sample=Solocello_trill_min3rd_FF_G#2.opus
</region>

<region>
end=309723
hikey=G#6
hivel=127
lokey=f5
loop_end=259075
loop_mode=loop_continuous
loop_start=79695
loop_xfade=36505
lovel=1
lpc=S+4NQcm8gcGm/E9BbGAPwfxFEEErc63AsJiRP/NQSj/os3m+qMl8vudygT+wlpG/tqR4P8bcCT9CbQa/0QLuPL+lF76trqE/mBI8v2I+Qz+unsm9fR0Rv5atez8Xsy09
lpc_rms=-23.21
pitch_keycenter=F#5
sample=Solocello_trill_min3rd_FF_F#5.opus
</region>

<region>
end=310269
hikey=f#4
hivel=127
lokey=f4
loop_end=259532
loop_mode=loop_continuous
loop_start=79835
loop_xfade=36569
lovel=1
lpc=tckbQbyOpcEGsZJBlRc9wcIfFEHL6+XAqQWdQIu+cMDitu0/Nw0Av1Tl5T8FyCPAJZD7vpPND0AinZO/TO0tPx4AVr4UsYe+xGKZPqjeTL9pjrw/xXWNvlqIe7/vWUg/
lpc_rms=-26.21
pitch_keycenter=f#4
sample=Solocello_trill_min3rd_FF_F#4.opus
</region>

<region>
end=302830
hikey=f#3
hivel=127
lokey=f3
loop_end=253309
loop_mode=loop_continuous
loop_start=77921
loop_xfade=35692
lovel=1
lpc=tMmlQXfiOsL3aA5C+1hEwTrFEEH5uSzBm9TPQLAsoMBU6qRAdOGMwNbVmUDr1BLAMMlvwGXGo0DI6Is/H7xtwCliWz9JLha/smsKQKFGrr/3/zY/i5u7vqhJzb+wWbI/
lpc_rms=-27.29
pitch_keycenter=f#3
sample=Solocello_trill_min3rd_FF_F#3.opus
</region>

<region>
end=301507
hikey=f#2
hivel=127
lokey=f2
loop_end=252202
loop_mode=loop_continuous
loop_start=77581
loop_xfade=35536
lovel=1
lpc=aBJBQuYt5cISOa1CBJStweoaakEP2aHBnpkBQS0KqsA1hBJAhfvPQHQWusAzkTtAw5scwaFKgEFnzcHAKRemwGUuQr8fsRpBXA+XwKVTgcCKWb5A40lAwAT6Eb+1mnk/
lpc_rms=-22.06
pitch_keycenter=f#2
sample=Solocello_trill_min3rd_FF_F#2.opus
</region>

<region>
end=331209
hikey=e5
hivel=127
lokey=D5
loop_end=277047
loop_mode=loop_continuous
loop_start=85223
loop_xfade=39037
lovel=1
lpc=mesEQarUdcEXCztBj/DhwJyG20AzubPAFqWkQFXll8BfqSZAok/Jv/4BLEA/5Mi/52OJv19QI0Bg+XW/K5SxvgwbwT4KhTQ/VYnIv07S4D+KcBk+2TViv5slWz7Ga9o+
lpc_rms=-27.11
pitch_keycenter=e5
sample=Solocello_trill_min3rd_FF_E5.opus
</region>

<region>
end=298437
hikey=e4
hivel=127
lokey=d#4
loop_end=249634
loop_mode=loop_continuous
loop_start=76791
loop_xfade=35174
lovel=1
lpc=zK4KQRIZlcG6qIxBuUZbwQgZTEFOKCnBWDTnQDEGp8CDm1xA6H3av6w9sj/euMO/WGlxvlvosz8PcVe+X3/CvqSnlb9ftgZAJK6lv3YQeT+M9Ua/jFfPvdELGz1URgY/
lpc_rms=-27.59
pitch_keycenter=e4
sample=Solocello_trill_min3rd_FF_E4.opus
</region>

<region>
end=293680
hikey=e3
hivel=127
lokey=d#3
loop_end=245655
loop_mode=loop_continuous
loop_start=75567
loop_xfade=34614
lovel=1
lpc=Wd++QeEyWcKsNzFCTX2pwf7akEGOEY7BtGAeQVYxyMAF3+hA0ZwAwTeX9kCZ+lPATy/IwG/FP0FyMbvAfz9vwNnWZ0DxAyk/kMITQJx7iMDoiOw/awX4vxsbD0CoFCq/
lpc_rms=-26.19
pitch_keycenter=e3
sample=Solocello_trill_min3rd_FF_E3.opus
</region>

<region>
end=293782
hikey=e2
hivel=127
lokey=d#2
loop_end=245741
loop_mode=loop_continuous
loop_start=75593
loop_xfade=34626
lovel=1
lpc=f2FrQgoACsP0dcRCgzKTwd6wbkEhVanB1GnBQO1j1sAtNrI/9FzPQO6uwUDUFYXAKSqewejt0kFrs8LAyF/+wOmhDb8n/CRBELNgwFaVzsC299FAedAxwFUoW79XDbE/
lpc_rms=-21.09
pitch_keycenter=e2
sample=Solocello_trill_min3rd_FF_E2.opus
</region>

<region>
end=296336
hikey=d4
hivel=127
lokey=c#4
loop_end=247877
loop_mode=loop_continuous
loop_start=76250
loop_xfade=34927
lovel=1
lpc=0UqQQaneFsLh6PhBeZKbwRFMmUElaozBQ5QrQcrM3sBuZ9BARCvJwC4hI0BpcYU/LB4iwKUKNEC9hBnAZwj5P86GCcBhKDJAP3tev3gJBj6YTf2959fQv4eWFkAVuxG/
lpc_rms=-21.10
pitch_keycenter=d4
sample=Solocello_trill_min3rd_FF_D4.opus
</region>

<region>
end=287238
hikey=d3
hivel=127
lokey=c#3
loop_end=240267
loop_mode=loop_continuous
loop_start=73909
loop_xfade=33854
lovel=1
lpc=y8McQvp+usIFH5xCuLAEwsqaskEecKDBqNMpQdtqOMHqkDxBYDEWwXqcZUFvhU/Bs/MHwMo1PUF4cTbAnFTPwHWyREC7bKw/Qn6BQHm9D8GVcwZBXezRwNbvJEBUCAU9
lpc_rms=-20.69
pitch_keycenter=d3
sample=Solocello_trill_min3rd_FF_D3.opus
</region>

<region>
end=299694
hikey=d2
hivel=127
lokey=c#2
loop_end=250686
loop_mode=loop_continuous
loop_start=77114
loop_xfade=35323
lovel=1
lpc=mQpBQiw85MLdsadChLiHwUHUL0GlLoDBvzw4QHpemcC5rWVA/boIQaGvlMAsKEW+Wt1QwZvulUEnjy2+KMZSwSO1SEB/AbpAEWSIP4787sCJi99AjVqgwL8eLEBk5iu/
lpc_rms=-21.20
pitch_keycenter=d2
sample=Solocello_trill_min3rd_FF_D2.opus
</region>

<region>
end=339937
hikey=C#5
hivel=127
lokey=b4
loop_end=284348
loop_mode=loop_continuous
loop_start=87469
loop_xfade=40066
lovel=1
lpc=LxINQYNyg8Gq2lZB9NwRwU9XCEGsE9/AXRSuQLVxccB/QxlAtrQjwDSPEkCrREy/FUZCv0G83T9yeuO/0r7JP2rPz78QXh1AFn6Wv+hRRT9krI6/UPVyP7I4Mb/WbmY/
lpc_rms=-28.11
pitch_keycenter=c5
sample=Solocello_trill_min3rd_FF_C5.opus
</region>

<region>
end=332701
hikey=c4
hivel=127
lokey=b3
loop_end=278295
loop_mode=loop_continuous
loop_start=85607
loop_xfade=39213
lovel=1
lpc=Smw2QVnOxsHjUqlB+JI/wfk1H0HptRzBOQjHQN5rcMAbsj5AhLC6v+VBoz9TigHA4kmaPhbj5j9xO9S/UDWjP71Tnr+q0kY/R1uCP6EZwL8AHHE/82lGvx9O0z5yggO+
lpc_rms=-26.70
pitch_keycenter=c4
sample=Solocello_trill_min3rd_FF_C4.opus
</region>

<region>
end=309189
hikey=c3
hivel=127
lokey=b2
loop_end=258628
loop_mode=loop_continuous
loop_start=79557
loop_xfade=36442
lovel=1
lpc=rvTgQdItg8IrcE5CS7GlwdvGm0HU6qXBs0o9QbXvAsFdgcdApWeZwCLC5EB8ML/AAlcNwAVIAkEZzJHALF/YPpHqhcCjTetAVweHv1VWM8BSkPk/vndWwNDm+T8CIPg9
lpc_rms=-22.33
pitch_keycenter=c3
sample=Solocello_trill_min3rd_FF_C3.opus
</region>

<region>
end=309361
hivel=127
key=c2
loop_end=258772
loop_mode=loop_continuous
loop_start=79602
loop_xfade=36462
lovel=1
lpc=gp3gQahIh8IyHUpCJfU2wQsoWEHqmK/B3NQrQV3QrsB5GgVBroACwSY7FkFWCCbBMFwZQAL+j0C/1Cg/LlyKwBpR2b5q3ylAOAxjP8zf/b9Zuym/O7sPQM+YDcCWyHU/
lpc_rms=-26.38
sample=Solocello_trill_min3rd_FF_C2.opus
</region>

<region>
end=296271
hikey=a#4
hivel=127
lokey=a4
loop_end=247823
loop_mode=loop_continuous
loop_start=76233
loop_xfade=34919
lovel=1
lpc=7SWxQI/aKsEgVRdBLeHswM187EBUwMXAbuiDQCLPKsA4XaY/I7x5vXLterxFbyo+J256vzjQ1j94fFa/pNxTvsHIvL2WuTU/MyacvsIZQL4Tit4+YwegvlIcgL1lVQk/
lpc_rms=-30.81
pitch_keycenter=a#4
sample=Solocello_trill_min3rd_FF_A#4.opus
</region>

<region>
end=306582
hikey=a#3
hivel=127
lokey=a3
loop_end=256447
loop_mode=loop_continuous
loop_start=78887
loop_xfade=36134
lovel=1
lpc=O/5HQW+S3cENw7lBi1E7we4lE0GlVxPBUZm4QL98hsDOnYBAlglkwKEdeEBexAbASdXMvxO/G0C501e/cWAbP/ze6b9CKDBAljK1v5NG6L6BFwc/rh5GP4Cf7L9hdI8/
lpc_rms=-30.40
pitch_keycenter=a#3
sample=Solocello_trill_min3rd_FF_A#3.opus
</region>

<region>
end=308920
hikey=a#2
hivel=127
lokey=a2
loop_end=258403
loop_mode=loop_continuous
loop_start=79488
loop_xfade=36410
lovel=1
lpc=dhnIQd0zZMKxmzFC4CSawZDLkkHImY7B1A0YQVju0MBjeqBAR5J4wKSOv0D7a5HA3oIcwLk0ykCphN6/vxIQwCBZBcDmEMJApIaav70qGsDN1QlAdM9kwIsZUUCF74G/
lpc_rms=-24.08
pitch_keycenter=a#2
sample=Solocello_trill_min3rd_FF_A#2.opus
</region>
</group>